<svg viewBox="0 0 240 240" xmlns="http://www.w3.org/2000/svg">
  <ellipse cx="120" cy="195" rx="80" ry="9" fill="#000" opacity="0.06"/>
  <rect x="35" y="150" width="170" height="14" rx="7" fill="#3A3A3A"/>
  <rect x="35" y="150" width="170" height="6" rx="3" fill="#555"/>
  <rect x="48" y="100" width="6" height="55" fill="#3A3A3A"/>
  <rect x="186" y="100" width="6" height="55" fill="#3A3A3A"/>
  <g>
    <ellipse cx="80" cy="130" rx="20" ry="13" fill="#8a4b2b"/>
    <ellipse cx="118" cy="124" rx="22" ry="14" fill="#a9531f"/>
    <ellipse cx="158" cy="132" rx="20" ry="13" fill="#7a3b1e"/>
    <ellipse cx="100" cy="142" rx="16" ry="10" fill="#c0392b"/>
    <ellipse cx="142" cy="146" rx="15" ry="9" fill="#d9531d"/>
  </g>
  <path d="M62 95 q10 -25 -2 -40 q18 4 16 25 q10 -14 2 -30 q16 8 8 35 z" fill="#F4A23A" opacity=".9"/>
  <path d="M160 95 q10 -22 0 -36 q16 5 13 23 q9 -12 2 -27 q14 9 6 32 z" fill="#F4A23A" opacity=".9"/>
</svg>
