<svg viewBox="0 0 240 240" xmlns="http://www.w3.org/2000/svg">
  <ellipse cx="120" cy="195" rx="75" ry="9" fill="#000" opacity="0.06"/>
  <path d="M55 175 q65 25 130 0 l-8 -20 q-57 18 -114 0 z" fill="#3A3A3A"/>
  <path d="M70 100 q15 -35 -5 -55 q25 5 25 35 q15 -20 5 -45 q25 10 15 50 q10 -10 5 -25 q15 15 0 45 z" fill="#F4A23A"/>
  <path d="M75 105 q12 -28 -4 -45 q20 4 20 28 q12 -16 4 -36 q20 8 12 40 z" fill="#E0392B" opacity=".8"/>
  <g transform="rotate(-8 120 130)">
    <rect x="50" y="126" width="140" height="7" rx="3" fill="#8a8f86"/>
    <circle cx="70" cy="129" r="12" fill="#7A3B1E"/>
    <circle cx="96" cy="129" r="12" fill="#C0392B"/>
    <circle cx="122" cy="129" r="11" fill="#3FA66B"/>
    <circle cx="148" cy="129" r="12" fill="#7A3B1E"/>
    <circle cx="172" cy="129" r="11" fill="#C0392B"/>
  </g>
</svg>
