<svg viewBox="0 0 240 240" xmlns="http://www.w3.org/2000/svg">
  <ellipse cx="120" cy="190" rx="70" ry="10" fill="#000" opacity="0.06"/>
  <path d="M55 130 Q120 100 185 130 L172 165 Q120 185 68 165 Z" fill="#E8E2D6"/>
  <path d="M55 130 Q120 150 185 130 L185 132 Q120 154 55 132 Z" fill="#D8CFBC"/>
  <path d="M62 128 Q120 105 178 128 L178 130 Q120 108 62 130 Z" fill="#fff"/>
  <path d="M80 122 q8-14 18-4" stroke="#3FA66B" stroke-width="6" fill="none" stroke-linecap="round"/>
  <path d="M105 116 q10-16 20-2" stroke="#F4C53A" stroke-width="6" fill="none" stroke-linecap="round"/>
  <path d="M130 120 q8-14 20-4" stroke="#E0392B" stroke-width="6" fill="none" stroke-linecap="round"/>
  <path d="M150 116 q8-12 16-2" stroke="#3FA66B" stroke-width="6" fill="none" stroke-linecap="round"/>
  <circle cx="95" cy="118" r="5" fill="#E0392B"/>
  <circle cx="142" cy="112" r="5" fill="#F4C53A"/>
  <circle cx="118" cy="124" r="5" fill="#3FA66B"/>
  <g transform="translate(150,55) rotate(18)">
    <rect x="0" y="0" width="6" height="80" rx="3" fill="#B8895A"/>
    <rect x="14" y="6" width="6" height="80" rx="3" fill="#B8895A"/>
  </g>
</svg>
