<svg viewBox="0 0 240 240" xmlns="http://www.w3.org/2000/svg">
  <ellipse cx="120" cy="195" rx="78" ry="9" fill="#000" opacity="0.06"/>
  <circle cx="120" cy="135" r="78" fill="#fff"/>
  <circle cx="120" cy="135" r="78" fill="none" stroke="#E6E0D2" stroke-width="4"/>
  <circle cx="120" cy="135" r="60" fill="#F4EDE4"/>
  <path d="M85 120 q35 -22 70 0 q4 22 -8 36 q-27 14 -54 0 q-12 -14 -8 -36z" fill="#8a4b2b"/>
  <path d="M90 124 q30 -16 60 0 q2 16 -7 26 q-23 10 -46 0 q-9 -10 -7 -26z" fill="#a9531f"/>
  <path d="M150 60 l-8 35" stroke="#9aa39a" stroke-width="5" stroke-linecap="round"/>
  <path d="M148 58 l4 14 M152 58 l-2 16 M156 58 l4 12" stroke="#9aa39a" stroke-width="4" stroke-linecap="round"/>
  <path d="M90 60 l8 35" stroke="#9aa39a" stroke-width="5" stroke-linecap="round"/>
  <ellipse cx="92" cy="58" rx="8" ry="5" fill="#9aa39a"/>
</svg>
