<svg viewBox="0 0 240 240" xmlns="http://www.w3.org/2000/svg">
  <ellipse cx="120" cy="190" rx="72" ry="10" fill="#000" opacity="0.06"/>
  <path d="M50 120 a70 40 0 0 0 140 0 z" fill="#C7501F"/>
  <path d="M50 120 a70 40 0 0 0 140 0 l-4 0 a66 36 0 0 1 -132 0 z" fill="#A93F16"/>
  <ellipse cx="120" cy="118" rx="62" ry="30" fill="#E8702C"/>
  <ellipse cx="120" cy="116" rx="50" ry="22" fill="#D9531D"/>
  <circle cx="100" cy="112" r="7" fill="#F4C53A"/>
  <circle cx="130" cy="108" r="6" fill="#3FA66B"/>
  <circle cx="142" cy="120" r="6" fill="#E0392B"/>
  <circle cx="108" cy="124" r="5" fill="#fff" opacity=".8"/>
  <rect x="40" y="108" width="14" height="6" rx="3" fill="#7A3010"/>
  <rect x="186" y="108" width="14" height="6" rx="3" fill="#7A3010"/>
  <path d="M70 150 q50 -16 100 0" stroke="#F4C53A" stroke-width="10" fill="none" stroke-linecap="round" opacity=".5"/>
</svg>
