<svg viewBox="0 0 240 240" xmlns="http://www.w3.org/2000/svg">
  <ellipse cx="120" cy="195" rx="80" ry="9" fill="#000" opacity="0.06"/>
  <ellipse cx="120" cy="150" rx="85" ry="20" fill="#E6E0D2"/>
  <ellipse cx="120" cy="146" rx="85" ry="20" fill="#fff"/>
  <path d="M55 130 a65 45 0 0 1 130 0 z" fill="#F4EDE4"/>
  <ellipse cx="85" cy="118" rx="16" ry="10" fill="#a9531f"/>
  <ellipse cx="120" cy="112" rx="18" ry="11" fill="#C0392B"/>
  <ellipse cx="155" cy="118" rx="15" ry="9" fill="#7a3b1e"/>
  <circle cx="100" cy="128" r="6" fill="#3FA66B"/>
  <circle cx="138" cy="128" r="6" fill="#F4C53A"/>
  <path d="M30 120 q-6 -26 16 -34 q-2 18 6 26 q-12 4 -22 8z" fill="#F4A23A" opacity=".9"/>
  <path d="M210 120 q6 -26 -16 -34 q2 18 -6 26 q12 4 22 8z" fill="#F4A23A" opacity=".9"/>
</svg>
