<svg viewBox="0 0 240 240" xmlns="http://www.w3.org/2000/svg">
  <ellipse cx="120" cy="195" rx="72" ry="9" fill="#000" opacity="0.06"/>
  <path d="M45 130 a75 50 0 0 0 150 0 z" fill="#fff"/>
  <path d="M45 130 a75 50 0 0 0 150 0 l-3 0 a72 47 0 0 1 -144 0 z" fill="#E6E0D2"/>
  <path d="M60 122 q20 -28 60 -18 q40 -16 60 18 z" fill="#3FA66B"/>
  <path d="M75 120 q15 -16 45 -10 q30 -10 45 10 z" fill="#54C26B"/>
  <circle cx="90" cy="116" r="9" fill="#E0392B"/>
  <circle cx="120" cy="108" r="8" fill="#F4C53A"/>
  <circle cx="150" cy="116" r="8" fill="#F4A23A"/>
  <circle cx="105" cy="124" r="6" fill="#fff"/>
  <circle cx="135" cy="124" r="6" fill="#fff"/>
</svg>
